<?xml version="1.0" encoding="UTF-8"?>
<svg id="Calque_1" data-name="Calque 1" xmlns="http://www.w3.org/2000/svg" viewBox="0 0 867.38 627.55">
  <defs>
    <style>
      .cls-1 {
        fill: #0f101e;
      }

      .cls-2 {
        fill: #28a993;
      }
    </style>
  </defs>
  <g>
    <path class="cls-1" d="m399.29,417.59v77.06c0,31.91-16.66,47.76-49.77,47.56-32.91-.6-49.36-18.46-49.36-53.78s14.05-54.58,42.34-55.59c13.25,0,23.48,5.42,30.3,16.46v-45.15h13.25c7.23,0,13.25,6.22,13.25,13.44Zm-71.64,69.64c-.2,21.47,7.02,32.31,22.27,32.31s22.88-10.84,22.88-32.31c-.6-20.47-8.03-30.5-22.48-30.5s-21.88,10.03-22.68,30.5Z"/>
    <path class="cls-1" d="m411.33,485.82c.8-34.32,19.07-51.37,54.58-51.37h3.82v27.69h-9.03c-14.85,0-22.28,7.83-22.28,23.28v55.19h-27.09v-54.78Z"/>
    <path class="cls-1" d="m500.04,404.14c8.83,0,13.04,4.41,12.84,13.04v7.83h-26.69v-20.87h13.85Zm0,30.3c8.63,0,12.84,4.21,12.84,12.84v93.31h-26.69v-106.16h13.85Z"/>
    <path class="cls-2" d="m629.07,434.45l-37.53,106.16h-28.3l-37.33-106.16h29.5l21.47,74.45,18.46-65.02c2.01-6.22,6.42-9.43,13.05-9.43h20.67Z"/>
    <path class="cls-2" d="m682.46,543.01c-32.11-1-48.16-19.67-48.16-55.79s16.25-54.18,48.56-54.39c33.72,0,49.57,20.67,47.56,62.21h-68.63c1,16.25,8.03,24.48,21.07,24.48,6.22,0,12.04-2.61,17.26-7.63,2.41-2.61,5.42-3.81,9.03-3.81h19.67c-5.82,22.48-20.27,34.92-46.36,34.92Zm-20.27-67.03h39.93c-1.6-14.05-8.22-21.27-19.66-21.27s-18.26,7.23-20.27,21.27Z"/>
    <path class="cls-2" d="m742.86,485.82c.8-34.32,19.07-51.37,54.58-51.37h3.82v27.69h-9.03c-14.85,0-22.28,7.83-22.28,23.28v55.19h-27.09v-54.78Z"/>
    <path class="cls-2" d="m845.21,453.51h-2.81v58.8c0,4.42,2.61,6.82,7.83,6.82h8.22v20.27c-8.63.8-18.06.8-28.09-.2-10.03-1-14.85-7.23-14.65-19.07v-115.99h13.85c7.02,0,12.84,6.42,12.84,13.44v16.86h16.05v5.82c0,7.63-5.82,13.25-13.24,13.25Z"/>
  </g>
  <g>
    <path class="cls-1" d="m111.81,520.12v-2.73c.91-20.3,17.88-68.18,18.18-71.51,0-1.52-.3-2.12-1.21-2.12s-2.12,1.21-3.03,2.12c-4.54,4.24-9.39,9.7-13.63,15.45-12.12,15.76-22.73,33.33-26.97,40.9-3.64,14.24-6.97,26.36-6.97,31.21v.61c0,2.73-1.52,3.33-3.33,3.33h-3.33c-11.52,0-16.36-5.15-16.36-15.15l.31-4.24c2.12-20.61,15.76-59.39,19.09-70.9l.31-2.12c0-.91-.31-1.21-.91-1.21s-1.82.6-3.33,1.82c-5.15,4.24-13.34,14.85-14.24,15.75-11.82,15.45-22.42,33.33-26.66,40.9-3.94,13.33-6.67,25.16-6.97,32.12,0,2.12-1.52,3.03-3.33,3.03h-2.12c-7.27,0-16.97-1.51-17.27-8.48v-.31c0-18.18,20.3-81.21,25.45-94.54.91-2.42,3.63-3.64,7.57-3.64,7.27,0,17.27,4.24,17.27,9.09l-.3,1.21c-5.15,12.73-9.09,25.45-13.33,38.48,4.54-6.97,9.7-14.24,15.15-21.51,6.06-7.88,14.84-18.18,23.33-23.94,3.63-2.42,7.58-3.33,11.21-3.33,7.58,0,13.94,4.54,13.94,12.73l-.31,3.63c-1.21,6.36-5.45,21.51-9.09,34.24,4.85-7.27,10.3-15.45,16.36-23.33,6.36-7.88,14.84-18.18,23.33-23.94,3.64-2.42,7.58-3.33,11.22-3.33,7.57,0,13.94,4.54,13.94,12.73l-.31,3.63c-4.24,20.91-18.79,61.51-18.79,79.09,0,3.64.3,5.45,1.82,5.45,3.94-.3,6.97-2.73,11.51-10.61,5.45-8.79,12.12-23.63,22.73-47.57.61-1.21,1.51-1.82,2.43-1.82,1.81,0,3.33,1.21,3.33,3.03,0,.3,0,.61-.3,1.21-10.6,24.24-17.57,39.39-23.03,48.48-6.06,9.7-10.61,13.03-16.36,13.33l-8.48.3c-10.6,0-18.48-2.73-18.48-17.57Z"/>
    <path class="cls-1" d="m177.86,594.66c-11.51-.61-19.69-8.18-19.69-20v-1.21c.3-1.82,1.51-2.73,2.73-2.73h.61c1.51,0,3.03.91,3.03,2.43,0,5.15,3.63,8.18,9.09,8.18h.31c23.33,0,35.15-52.12,40.3-70.6-7.27,13.63-17.27,26.66-25.75,27.27h-3.64c-7.57,0-15.45-.91-19.09-7.27-1.51-3.03-2.43-6.97-2.43-12.12,0-24.55,16.67-69.99,23.33-84.24,1.21-2.42,3.94-3.33,7.58-3.33,6.97,0,16.36,4.24,16.36,8.79l-.31,1.52c-2.42,6.67-24.54,67.26-24.54,85.45,0,3.33.61,5.15,2.42,5.15,3.33-.3,9.09-4.54,16.97-16.97,6.06-10.3,13.33-25.45,21.21-47.57,3.33-10.61,6.67-21.51,10.61-32.42.91-2.73,4.24-3.94,8.48-3.94,7.27,0,16.66,3.63,16.66,8.48l-.3,1.21c-3.64,9.7-7.58,23.03-12.12,37.27-5.76,19.7-15.45,51.21-23.03,70.3-8.48,20.61-20.91,46.36-46.66,46.36h-2.13Z"/>
  </g>
  <g>
    <path class="cls-2" d="m358.69,58.36c-5.41-6.7-12.88-9.66-20.97-12.61-3.59-1.31-8.58-3.52-12.65-4.3,13.08-1.02,28.89,4.24,41.01,9.28-2.03-5.54-10.77-22.81-31.92-22.46-21.16.35-36.57-10.15-36.57-10.15,0,0,11.3,59.82,61.11,40.25Z"/>
    <path class="cls-2" d="m577.05,168.72c-7.47-24.24-20.31-45.32-36.79-62.4,3.73-9.28,1.02-20.23-7.37-26.5l-25.01-18.69-6.42,8.59-10.1-7.55-3.03,4.06,10.1,7.55-8.16,10.92-10.1-7.55-3.03,4.06,10.1,7.55-6.42,8.59,25.01,18.69c8.6,6.42,20.24,5.77,28.1-.88,16.29,17.33,28.59,38.97,34.92,63.87,18.49,72.55-22.02,148.24-92.62,173.15-78.55,27.76-163.66-15.59-187.97-94.42-23.71-76.91,19.42-158.5,96.36-182.23,5.58-1.72,11.22-3.09,16.82-4.11,30.67-5.63,55.22-29.36,60.73-60.04.93-5.15,1.12-8.95.75-10.42-.17-.63-.27-.96-.27-.96,0,0-8.73,13.64-44.25,18.4-34.55,4.6-43.24,35.27-43.69,37.02,8.73-6.2,29.14-18.04,60.93-21.13-13.69,3.15-26.26,7.27-41.11,17.29-10.78,7.26-21.76,14.24-33.17,20.47l-7.17,3.91c-8.68,4.63-17.23,10.94-24.71,16.99l-.1.06c-49.76,40.1-72,108.66-49.59,173.27,26.52,76.39,108.33,120.3,186.61,100.13,87.07-22.43,136.85-112.69,110.65-197.67Z"/>
    <path class="cls-1" d="m520.85,198.16c1.61-.24,3.27-.18,4.9-.26,4.56-.18,9.12-.28,13.66-.59,1.86-.13,3.74-.52,5.48-1.16,2.61-.95,3.15-2.37,2.3-5-1.39-4.32-3.85-7.47-8.7-8.13-2.44-.34-4.85-.94-7.28-1.29-2.99-.43-4.36.62-4.93,3.61-.44,2.31-.88,4.62-1.23,6.93-.17,1.16-.76,1.64-1.87,1.64-.77,0-1.53.01-2.3.09-3.53.38-3.5.38-4.62-2.9l-7.3-2.48.91,2.25c.77,3.17-1.18,4.83-4.45,4.83h-152.39c-3.29,0-5.27-.84-4.51-4.01l13.29-38.34c1.5-4.08,3.91-5.68,5.36-6.12,1.56-.47,4.09-.38,5.7-.44h13.11l-13.87-4.72c-9.93,0-11.07.34-14.15,6.36-1.86,3.66-4.05,8.88-5.45,12.69-3.66,9.9-6.91,19.96-10.31,29.97-1.11,3.29-1.09,3.29-4.62,2.9-.75-.07-1.53-.09-2.28-.09-1.12,0-1.7-.48-1.88-1.64-.34-2.31-.78-4.62-1.22-6.93-.58-2.99-1.96-4.04-4.94-3.61-2.44.35-4.83.95-7.27,1.29-4.85.67-7.32,3.81-8.7,8.13-.85,2.64-.31,4.05,2.28,5,1.74.64,3.64,1.03,5.48,1.16,4.55.31,9.11.41,13.66.59,1.64.07,3.3.01,4.92.26,1.52.23,1.74.94.69,1.98-3.49,3.47-6.97,6.94-10.57,10.29-2.58,2.41-4.41,5.17-4.87,8.71-.21,1.63-.43,3.27-.38,4.92.33,10.13.71,20.27,1.09,30.42,0,.17.03.34.04.52.81,7.69,1.63,15.39,2.39,23.09.37,3.71,1.53,7.1,3.68,10.14,1.59,2.25,3.43,3.56,6.55,3.49,11.49-.26,23.01.28,34.46-1.15h117.07c11.46,1.43,22.97.89,34.47,1.15,3.1.07,4.96-1.23,6.55-3.49,2.14-3.05,3.32-6.43,3.67-10.14.77-7.71,1.6-15.4,2.41-23.09.01-.18.04-.35.04-.52.37-10.14.76-20.29,1.08-30.42.06-1.64-.17-3.29-.38-4.92-.45-3.54-2.28-6.3-4.87-8.71-3.6-3.34-7.07-6.81-10.56-10.29-1.06-1.05-.84-1.76.69-1.98Zm-161.88,62.01l-23.7-.55c.31.84.48,1.42.75,1.94,1.32,2.55,2.73,5.04,3.84,7.69.18.45.37.92.4,1.4.04.5-.06,1.02-.38,1.39-.24.27-.57.44-.91.55-.77.24-1.6.23-2.34-.07-1.26-.52-1.7-1.77-2.28-2.89-.65-1.3-1.15-2.66-1.61-4.05-.98-2.89-1.81-5.88-1.97-8.95-.03-.45-.16-1.32.3-1.63.48-.28,1.46-.16,1.96-.11,1.61.13,3.23.24,4.83.37,6.36.5,12.72.98,19.08,1.47,2.24.17,4.46.34,6.7.51-1.22,2.08-2.75,2.93-4.66,2.93Zm8.87-26.64c-1.81.21-3.66.28-5.48.24-2.58-.04-5.16-.28-7.71-.67-4.7-.68-9.34-1.84-13.88-3.2-2.52-.75-4.53-2.78-4.87-5.45-.21-1.74-.13-3.6-.11-5.36.03-1.84.14-3.7.44-5.51.45-2.73,1.49-6.83,4.86-7.18,2.07-.23,4.17,1.03,5.88,2.03.86.5,1.71,1.03,2.49,1.67.79.64,1.49,1.37,2.22,2.07,2.22,2.14,4.77,3.94,7.52,5.36,1.22.64,2.48,1.19,3.77,1.67,1.16.43,2.38.54,3.57.91,1.49.47,2.9,1.15,4.21,2,1.2.79,2.35,1.33,3.07,2.66.52.96.96,2.27.85,3.36-.11,1.11-.1,2.22-.78,3.17-.69.98-1.91,1.45-3.07,1.73-.98.24-1.97.4-2.98.51Zm115.51,46.71c-1.26.24-2.56.37-3.84.37-19.55.01-22.37.01-41.92,0-19.55.01-39.09.01-58.64,0-1.29,0-2.59-.13-3.84-.37-1.91-.37-2.49-1.77-1.09-3.16,1.52-1.49,3.3-2.81,5.19-3.78,3.47-1.77,7.35-2.04,11.15-2.05h77.74c3.8.01,7.69.28,11.16,2.05,1.88.98,3.67,2.3,5.19,3.78,1.4,1.39.82,2.79-1.09,3.16Zm44.05-25.25c.45.31.33,1.18.3,1.63-.17,3.07-.99,6.06-1.97,8.95-.47,1.39-.98,2.75-1.63,4.05-.57,1.12-1.02,2.37-2.27,2.89-.74.3-1.59.31-2.34.07-.34-.11-.68-.28-.91-.55-.33-.37-.44-.89-.4-1.39.04-.48.21-.95.41-1.4,1.11-2.65,2.52-5.14,3.84-7.69.27-.52.43-1.11.75-1.94l-23.7.55c-1.91,0-3.46-.85-4.66-2.93,2.22-.17,4.46-.34,6.69-.51,6.36-.5,12.72-.98,19.08-1.47,1.61-.13,3.23-.24,4.83-.37.5-.04,1.49-.17,1.97.11Zm-5.17-41.41c.3,1.81.41,3.67.44,5.51.03,1.76.11,3.61-.11,5.36-.33,2.68-2.35,4.7-4.87,5.45-4.55,1.36-9.17,2.52-13.87,3.2-2.55.38-5.13.62-7.72.67-1.83.04-3.66-.03-5.48-.24-.99-.11-1.98-.27-2.96-.51-1.18-.28-2.38-.75-3.09-1.73-.68-.95-.65-2.07-.78-3.17-.11-1.09.33-2.39.85-3.36.74-1.33,1.88-1.87,3.09-2.66,1.29-.85,2.72-1.53,4.19-2,1.19-.37,2.41-.48,3.57-.91,1.3-.48,2.56-1.03,3.78-1.67,2.75-1.42,5.28-3.22,7.52-5.36.72-.69,1.43-1.43,2.21-2.07s1.63-1.18,2.49-1.67c1.73-.99,3.81-2.25,5.88-2.03,3.37.35,4.42,4.45,4.86,7.18Z"/>
    <path class="cls-1" d="m500.52,148.43c-3.09-6.02-4.24-6.36-14.15-6.36h-114.24l13.87,4.72h97.76c1.6.06,4.12-.03,5.68.44,1.45.44,3.85,2.04,5.36,6.12l14.17,35.25,7.32,2.49c-3.4-10-6.66-20.06-10.31-29.97-1.4-3.81-3.6-9.04-5.45-12.69Z"/>
  </g>
  <g>
    <path d="m312.85,595.71c0-10.92,7.77-18.54,18.47-18.54,5.81,0,10.85,2.24,13.85,6.72l-2.59,1.89c-2.66-3.71-6.72-5.46-11.26-5.46-8.61,0-14.91,6.16-14.91,15.39s6.3,15.39,14.91,15.39c4.55,0,8.61-1.75,11.26-5.46l2.59,1.89c-3.01,4.41-8.05,6.72-13.85,6.72-10.71,0-18.47-7.7-18.47-18.54Z"/>
    <path d="m390.5,592.63v21.34h-3.5v-21.06c0-8.26-4.41-12.59-11.83-12.59-8.61,0-13.86,5.53-13.86,14.2v19.45h-3.5v-51.92h3.5v23.02c2.52-4.97,7.56-7.91,14.34-7.91,8.89,0,14.83,5.25,14.83,15.46Z"/>
    <path d="m434.08,590.81v23.16h-3.36v-6.51c-2.31,4.2-6.79,6.79-13.16,6.79-8.19,0-13.16-4.2-13.16-10.43,0-5.53,3.5-10.22,13.64-10.22h12.53v-2.94c0-6.79-3.71-10.43-10.85-10.43-5.04,0-9.59,1.89-12.59,4.62l-1.75-2.52c3.64-3.22,8.96-5.17,14.62-5.17,9.03,0,14.06,4.61,14.06,13.64Zm-3.5,12.38v-6.86h-12.45c-7.56,0-10.22,3.15-10.22,7.35,0,4.76,3.71,7.7,10.15,7.7s10.43-2.94,12.53-8.19Z"/>
    <path d="m483.25,577.45v36.53h-3.36v-7.84c-2.38,5.11-7.35,8.12-13.78,8.12-9.3,0-15.25-5.25-15.25-15.47v-21.34h3.5v21.06c0,8.26,4.41,12.59,12.04,12.59,8.26,0,13.36-5.53,13.36-14.2v-19.45h3.5Z"/>
    <path d="m504.99,572.13v5.32h11.68v3.01h-11.61v33.52h-3.5v-33.52h-6.72v-3.01h6.72v-5.6c0-6.09,3.64-10.07,10.15-10.07,2.66,0,5.46.77,7.21,2.38l-1.4,2.66c-1.47-1.33-3.5-2.03-5.67-2.03-4.55,0-6.86,2.52-6.86,7.35Z"/>
    <path d="m530.73,572.13v5.32h11.68v3.01h-11.61v33.52h-3.5v-33.52h-6.72v-3.01h6.72v-5.6c0-6.09,3.64-10.07,10.15-10.07,2.66,0,5.46.77,7.21,2.38l-1.4,2.66c-1.47-1.33-3.5-2.03-5.67-2.03-4.55,0-6.86,2.52-6.86,7.35Z"/>
    <path d="m582.57,596.55h-31.42c.35,8.67,6.72,14.55,15.46,14.55,4.62,0,8.89-1.68,11.69-5.11l2.03,2.31c-3.22,3.92-8.26,5.95-13.78,5.95-11.05,0-18.82-7.7-18.82-18.54s7.49-18.54,17.49-18.54,17.42,7.56,17.42,18.4c0,.28-.07.63-.07.98Zm-31.35-2.73h27.99c-.49-7.91-6.23-13.58-13.99-13.58s-13.43,5.6-14,13.58Z"/>
    <path d="m628.25,577.45v36.53h-3.36v-7.84c-2.38,5.11-7.35,8.12-13.78,8.12-9.31,0-15.25-5.25-15.25-15.47v-21.34h3.5v21.06c0,8.26,4.41,12.59,12.04,12.59,8.26,0,13.36-5.53,13.36-14.2v-19.45h3.5Z"/>
    <path d="m663.14,577.17v3.43c-.28,0-.56-.07-.84-.07-8.12,0-12.94,5.39-12.94,14.42v19.03h-3.5v-36.53h3.36v7.98c2.24-5.32,7.07-8.26,13.93-8.26Z"/>
    <path d="m733.37,595.71c0,10.98-7.77,18.54-18.05,18.54-6.44,0-11.89-3.15-14.83-8.61v21.9h-3.5v-50.1h3.36v8.61c2.87-5.6,8.4-8.88,14.98-8.88,10.28,0,18.05,7.62,18.05,18.54Zm-3.5,0c0-9.17-6.37-15.39-14.76-15.39s-14.69,6.23-14.69,15.39,6.3,15.39,14.69,15.39,14.76-6.23,14.76-15.39Z"/>
    <path d="m764.28,577.17v3.43c-.28,0-.56-.07-.84-.07-8.12,0-12.94,5.39-12.94,14.42v19.03h-3.5v-36.53h3.36v7.98c2.24-5.32,7.07-8.26,13.93-8.26Z"/>
    <path d="m775.6,565.76c0-1.54,1.26-2.87,2.87-2.87s2.87,1.26,2.87,2.8-1.26,2.87-2.87,2.87-2.87-1.26-2.87-2.8Zm1.12,11.68h3.5v36.53h-3.5v-36.53Z"/>
    <path d="m827.09,577.45l-16.51,36.53h-3.57l-16.44-36.53h3.71l14.55,32.68,14.69-32.68h3.57Z"/>
    <path d="m867.32,596.55h-31.42c.35,8.67,6.72,14.55,15.46,14.55,4.62,0,8.88-1.68,11.68-5.11l2.03,2.31c-3.22,3.92-8.26,5.95-13.78,5.95-11.05,0-18.82-7.7-18.82-18.54s7.49-18.54,17.49-18.54,17.42,7.56,17.42,18.4c0,.28-.07.63-.07.98Zm-31.35-2.73h27.99c-.49-7.91-6.23-13.58-13.99-13.58s-13.43,5.6-13.99,13.58Zm13.78-22.32h-3.78l9.72-8.26h5.04l-10.98,8.26Z"/>
  </g>
</svg>